<?xml version="1.0" encoding="UTF-8"?>
<!DOCTYPE svg PUBLIC "-//W3C//DTD SVG 1.1//EN" "http://www.w3.org/Graphics/SVG/1.1/DTD/svg11.dtd">
<!-- Creator: CorelDRAW X7 -->
<svg xmlns="http://www.w3.org/2000/svg" xml:space="preserve" width="4.99516in" height="6.1642in" version="1.1" style="shape-rendering:geometricPrecision; text-rendering:geometricPrecision; image-rendering:optimizeQuality; fill-rule:evenodd; clip-rule:evenodd"
viewBox="0 0 4457 5500"
 xmlns:xlink="http://www.w3.org/1999/xlink">
 <defs>
  <style type="text/css">
   <![CDATA[
    .fil0 {fill:none}
    .fil1 {fill:#373435;fill-rule:nonzero}
    .fil2 {fill:#FFCC29;fill-rule:nonzero}
   ]]>
  </style>
 </defs>
 <g id="Layer_x0020_1">
  <metadata id="CorelCorpID_0Corel-Layer"/>
  <g id="_604462592">
   <line class="fil0" x1="2100" y1="313" x2="2100" y2= "5187" />
   <path class="fil1" d="M2002 16c30,-10 63,-16 98,-16l0 0 0 0 0 0 0 0c86,0 165,35 221,92 56,56 91,134 91,221l1 0 0 0 -1 0 0 1945 0 453 0 203c-5,119 157,103 300,-74l0 0 0 0c15,-18 30,-39 45,-61l356 -492 99 -137c68,-93 198,-114 292,-46 93,68 114,198 46,292l-817 1128 -946 -852 0 -532c2,0 4,0 6,0 115,0 209,-93 209,-208l0 -1916zm485 3847l-75 103 0 1221 1 0 0 0 -1 0c0,86 -35,165 -91,221l0 0c-57,56 -135,91 -221,91l0 1 0 0 0 0 0 -1c-87,0 -165,-35 -222,-91l0 -1c-56,-56 -91,-134 -91,-220l0 0 0 0 0 0 0 -358 -33 46c-68,94 -199,114 -292,47 -93,-68 -114,-199 -47,-292l372 -513 0 -884 700 630z"/>
   <line class="fil0" x1="3381" y1="2273" x2="1585" y2= "4753" />
   <path class="fil1" d="M138 2029l0 -1c-26,-23 -47,-47 -63,-70 -18,-26 -33,-53 -44,-81 -59,-144 -34,-314 76,-437l1 0 1 0c77,-86 181,-132 287,-137 105,-6 213,29 299,106l1 0 0 0 3622 3261 0 1 1 1c25,23 46,46 63,70 17,25 32,52 44,81 58,143 34,314 -77,437l-1 0 0 0c-77,85 -181,131 -287,137 -106,5 -214,-29 -299,-106l-1 0 -1 -1 -1869 -1682 0 -281 2009 1808c85,77 217,70 294,-15 77,-86 70,-217 -15,-294l-2392 -2154 0 -175 -1143 -1030 -1 0 0 0c-70,-62 -157,-90 -243,-86 -86,4 -171,42 -234,111l0 1 -1 0c-89,99 -109,238 -62,354 10,23 22,45 36,66 14,19 31,39 51,57l1 1 0 0 1087 980 -1140 -922 0 0z"/>
   <path class="fil2" d="M1787 2672l2392 2154c85,77 92,208 15,294 -77,85 -209,92 -294,15l-2113 -1902 0 -561z"/>
  </g>
 </g>
</svg>
